<svg xmlns="http://www.w3.org/2000/svg" width="430" height="123" viewBox="0 0 430 123">
  <g id="Group_7" data-name="Group 7" transform="translate(-427 -988)">
    <g id="Group_2" data-name="Group 2" transform="translate(567.792 982)">
      <g id="Group_4" data-name="Group 4" transform="translate(0)">
        <text id="St_Joseph" data-name="St Joseph" transform="translate(0.208 64)" fill="#0a0701" font-size="74" font-family="Sitka Display" font-weight="700"><tspan x="0" y="0">St Joseph</tspan></text>
        <text id="Transport" transform="translate(0.208 114)" fill="#f3c407" font-size="54" font-family="Sitka Display" font-weight="700"><tspan x="0" y="0">Transport</tspan></text>
      </g>
    </g>
    <g id="Group_6" data-name="Group 6" transform="translate(427 988)">
      <circle id="Ellipse_1" data-name="Ellipse 1" cx="61.5" cy="61.5" r="61.5" fill="#f3c407"/>
      <g id="Layer_x0020_1" transform="translate(17.488 27.132)">
        <path id="Path_1" data-name="Path 1" d="M237.933,735.882h-.567a9.095,9.095,0,0,0-18.1,0H204.515a9.095,9.095,0,0,0-18.1,0h-.928a9.123,9.123,0,0,0-18.153,0A4.576,4.576,0,0,1,163,731.344v-7.633a.97.97,0,0,1,.928-.98h53.531v-19.8a.924.924,0,0,1,.928-.928h5.467v12.325a5.117,5.117,0,0,0,5.106,5.106h13.563v11.913A4.556,4.556,0,0,1,237.933,735.882ZM226.845,723.66c-1.8,0-3.765.361-3.765-.928,0-1.341,1.96-.928,3.765-.928A.928.928,0,1,1,226.845,723.66ZM225.71,702h5.518a11.324,11.324,0,0,1,11.294,11.294v4.28H228.959a3.269,3.269,0,0,1-3.249-3.249Z" transform="translate(-154.655 -675.281)" fill-rule="evenodd"/>
        <path id="Path_2" data-name="Path 2" d="M653.581,1245.11a7.555,7.555,0,1,1,7.529-7.529A7.593,7.593,0,0,1,653.581,1245.11Zm0-3.816c-4.9,0-4.9-7.478,0-7.478C658.429,1233.816,658.429,1241.294,653.581,1241.294Z" transform="translate(-612.746 -1176.052)" fill-rule="evenodd"/>
        <path id="Path_3" data-name="Path 3" d="M284.529,1245.11a7.555,7.555,0,1,1,7.529-7.529A7.549,7.549,0,0,1,284.529,1245.11Zm0-3.816c-4.9,0-4.9-7.478,0-7.478S289.429,1241.294,284.529,1241.294Z" transform="translate(-262.776 -1176.052)" fill-rule="evenodd"/>
        <path id="Path_4" data-name="Path 4" d="M1290.529,1245.11a7.555,7.555,0,1,1,7.581-7.581A7.583,7.583,0,0,1,1290.529,1245.11Zm0-3.816c-4.9,0-4.9-7.478,0-7.478S1295.429,1241.294,1290.529,1241.294Z" transform="translate(-1216.895 -1176.052)" fill-rule="evenodd"/>
        <path id="Path_5" data-name="Path 5" d="M18.087,233.365,8.495,230.58a1.033,1.033,0,0,1-.619-.516l-6.55-12.222a.986.986,0,0,1,.413-1.392l36.976-19.855-2.063-3.919a3.827,3.827,0,0,1,1.547-5.209l5.879-3.146c3.61-1.96,6.5,3.507,2.94,5.467l-2.475,1.289,11.243,20.989a1,1,0,0,1-.413,1.392L18.6,233.21A1,1,0,0,1,18.087,233.365Zm.877-6.034a.953.953,0,0,1-.877-.567l-4.848-8.973c-.619-1.186,1.186-2.218,1.8-.98l4.848,8.973A1.059,1.059,0,0,1,18.964,227.331Zm8.716-4.693a1.152,1.152,0,0,1-.928-.516l-4.8-9.025a1.027,1.027,0,0,1,1.8-.98l4.848,9.025A1.031,1.031,0,0,1,27.679,222.638ZM36.395,218a1.027,1.027,0,0,1-.928-.567l-4.848-8.973c-.619-1.186,1.186-2.218,1.8-.98l4.848,8.973A1.055,1.055,0,0,1,36.395,218Zm8.664-4.693a.953.953,0,0,1-.877-.567l-4.848-8.973a1.027,1.027,0,0,1,1.8-.98l4.848,9.025A1.031,1.031,0,0,1,45.059,213.3Z" transform="translate(-1.181 -183.903)" fill-rule="evenodd"/>
        <path id="Path_6" data-name="Path 6" d="M862.922,1038.673c-.412,0-8.922.309-8.922-1.031v-1.8a2.828,2.828,0,0,1,2.836-2.837h4.28a2.828,2.828,0,0,1,2.836,2.837C863.953,1037.022,864.263,1038.673,862.922,1038.673Z" transform="translate(-810.019 -989.211)" fill-rule="evenodd"/>
        <path id="Path_7" data-name="Path 7" d="M900.59,783.987h-3.558A1.034,1.034,0,0,1,896,782.955V770.269c0-1.96,5.621-2.166,5.621-1.908v14.595A1.035,1.035,0,0,1,900.59,783.987Z" transform="translate(-849.853 -738.135)" fill-rule="evenodd"/>
      </g>
    </g>
  </g>
</svg>
